HIERARCHY
ROOT Hips
{
	OFFSET 4.076200 -17.275196 43.303001
	CHANNELS 6 Xposition Yposition Zposition Zrotation Xrotation Yrotation
	JOINT Chest
	{
		OFFSET -0.689800 0.941999 5.341000
		CHANNELS 6 Xposition Yposition Zposition Zrotation Xrotation Yrotation
		JOINT Chest2
		{
			OFFSET 0.000000 0.000000 4.278900
			CHANNELS 6 Xposition Yposition Zposition Zrotation Xrotation Yrotation
			JOINT Neck
			{
				OFFSET 0.000000 0.000000 9.970299
				CHANNELS 6 Xposition Yposition Zposition Zrotation Xrotation Yrotation
				JOINT Head
				{
					OFFSET 0.000000 0.000002 2.173901
					CHANNELS 6 Xposition Yposition Zposition Zrotation Xrotation Yrotation
					End Site
					{
						OFFSET 0.000000 0.000000 6.488197
					}
				}
			}
			JOINT LeftCollar
			{
				OFFSET 2.472300 -0.285801 5.433899
				CHANNELS 6 Xposition Yposition Zposition Zrotation Xrotation Yrotation
				JOINT LeftShoulder
				{
					OFFSET 5.327700 0.000000 0.000000
					CHANNELS 6 Xposition Yposition Zposition Zrotation Xrotation Yrotation
					JOINT LeftElbow
					{
						OFFSET 0.000000 0.000000 -10.713001
						CHANNELS 6 Xposition Yposition Zposition Zrotation Xrotation Yrotation
						JOINT LeftWrist
						{
							OFFSET 0.000000 -0.000002 -13.396900
							CHANNELS 6 Xposition Yposition Zposition Zrotation Xrotation Yrotation
							End Site
							{
								OFFSET 0.000000 0.000000 -2.173901
							}
						}
					}
				}
			}
			JOINT RightCollar
			{
				OFFSET -2.589400 -1.358400 6.105000
				CHANNELS 6 Xposition Yposition Zposition Zrotation Xrotation Yrotation
				JOINT RightShoulder
				{
					OFFSET -4.580200 0.000000 0.000000
					CHANNELS 6 Xposition Yposition Zposition Zrotation Xrotation Yrotation
					JOINT RightElbow
					{
						OFFSET 0.000000 0.000000 -10.761101
						CHANNELS 6 Xposition Yposition Zposition Zrotation Xrotation Yrotation
						JOINT RightWrist
						{
							OFFSET 0.000000 -0.000002 -13.028500
							CHANNELS 6 Xposition Yposition Zposition Zrotation Xrotation Yrotation
							End Site
							{
								OFFSET 0.000000 0.000000 -2.173901
							}
						}
					}
				}
			}
		}
	}
	JOINT LeftHip
	{
		OFFSET 2.532500 0.486900 -2.489700
		CHANNELS 6 Xposition Yposition Zposition Zrotation Xrotation Yrotation
		JOINT LeftKnee
		{
			OFFSET 0.000000 -0.000002 -18.199398
			CHANNELS 6 Xposition Yposition Zposition Zrotation Xrotation Yrotation
			JOINT LeftAnkle
			{
				OFFSET 0.000000 -0.000002 -16.083900
				CHANNELS 6 Xposition Yposition Zposition Zrotation Xrotation Yrotation
				End Site
				{
					OFFSET 0.000000 -8.641399 0.000000
				}
			}
		}
	}
	JOINT RightHip
	{
		OFFSET -2.112700 -0.049900 -2.711102
		CHANNELS 6 Xposition Yposition Zposition Zrotation Xrotation Yrotation
		JOINT RightKnee
		{
			OFFSET 0.000000 -0.000002 -19.127298
			CHANNELS 6 Xposition Yposition Zposition Zrotation Xrotation Yrotation
			JOINT RightAnkle
			{
				OFFSET 0.000000 -0.000002 -14.874901
				CHANNELS 6 Xposition Yposition Zposition Zrotation Xrotation Yrotation
				End Site
				{
					OFFSET 0.000000 -8.198299 0.000000
				}
			}
		}
	}
}
MOTION
Frames: 7
Frame Time: 0.041667
45.897900 49.045811 44.095200 -28.685309 18.628028 -3.365182 -0.689798 0.942001 5.340989 29.525023 -7.442876 7.776991 -0.000003 0.000007 4.278899 1.394221 -0.306306 1.049546 0.000000 -0.000002 9.970301 -19.332070 -11.681888 26.022141 -0.000001 0.000002 2.173900 -1.740202 4.742454 -5.627164 2.472298 -0.285805 5.433902 9.286382 0.659703 -1.781482 5.327701 -0.000002 0.000007 1194.715270 -139.374859 1112.083751 -0.000001 0.000000 -10.713003 289.263593 -141.948024 339.375161 -0.000000 -0.000004 -13.396900 151.878231 -525.745397 187.142853 -2.589399 -1.358406 6.105003 40.481428 26.971854 14.370718 -4.580202 0.000002 0.000004 -630.904137 -11.515754 -663.457310 0.000001 0.000003 -10.761101 192.756312 180.516750 180.021862 -0.000001 -0.000002 -13.028493 564.902161 -188.590525 858.717283 2.532496 0.486897 -2.489700 -678.923918 -46.053821 37.192586 -0.000002 -0.000003 -18.199406 792.572201 491.132785 -118.318506 0.000002 -0.000001 -16.083897 -169.372518 131.947602 193.815456 -2.112702 -0.049901 -2.711113 -6.392395 -19.319940 0.931406 -0.000006 -0.000004 -19.127298 1050.019844 23.322038 -1085.242637 0.000001 0.000003 -14.874901 178.657463 150.117682 203.889234
45.859901 49.061893 44.098297 -29.028075 18.786055 -3.303344 -0.689804 0.942003 5.340996 29.853613 -7.378717 7.744950 0.000003 0.000001 4.278903 1.453829 -0.352088 1.059752 0.000005 0.000003 9.970296 -19.125971 -11.828020 26.380059 0.000007 -0.000000 2.173890 -1.829252 4.874143 -5.519225 2.472305 -0.285801 5.433899 9.007635 0.898458 -1.190559 5.327702 0.000005 -0.000005 1194.777343 -139.486929 1111.593616 0.000001 -0.000001 -10.713004 289.152944 -142.095734 339.294811 0.000001 -0.000003 -13.396904 151.745029 -525.712229 187.058719 -2.589394 -1.358399 6.105001 40.581917 27.239262 14.236109 -4.580201 0.000005 0.000002 -631.033418 -11.564094 -662.829042 0.000005 0.000003 -10.761104 192.958513 180.998223 179.938602 0.000001 0.000003 -13.028503 565.312245 -188.328970 858.929510 2.532495 0.486902 -2.489700 -678.849005 -46.225102 37.169507 0.000002 -0.000001 -18.199402 792.550125 491.178520 -118.266720 -0.000000 0.000005 -16.083900 -169.290460 132.044646 194.077585 -2.112703 -0.049894 -2.711110 -6.677850 -19.565331 0.751268 -0.000002 0.000004 -19.127298 1050.236333 23.466479 -1085.231272 0.000001 0.000007 -14.874901 178.788015 150.080621 204.178369
45.821697 49.078312 44.097698 -29.167503 18.831397 -3.353716 -0.689800 0.941986 5.340998 29.987751 -7.231214 7.693942 0.000002 -0.000006 4.278898 1.497246 -0.351641 1.107842 -0.000007 -0.000004 9.970305 -18.879034 -11.900151 26.671231 -0.000004 0.000004 2.173892 -1.938696 4.910649 -5.513121 2.472295 -0.285799 5.433906 9.226769 0.630321 -1.023622 5.327700 -0.000003 0.000012 1194.560525 -139.303470 1111.765737 -0.000003 -0.000003 -10.712996 288.175571 -142.449223 338.873087 0.000001 -0.000001 -13.396898 151.016958 -525.618300 187.557582 -2.589407 -1.358405 6.105004 40.309574 26.766902 14.620069 -4.580198 -0.000002 0.000007 -630.785838 -11.800443 -662.752161 0.000005 0.000008 -10.761100 193.398186 181.567192 179.811451 -0.000000 -0.000003 -13.028506 565.055813 -188.252021 859.288833 2.532501 0.486890 -2.489700 -678.656339 -46.189813 37.319262 -0.000001 -0.000005 -18.199394 792.134741 491.355066 -118.095473 -0.000002 0.000003 -16.083899 -169.195097 132.198871 194.539647 -2.112700 -0.049908 -2.711102 -6.960788 -19.623489 0.637567 0.000005 -0.000004 -19.127298 1050.013068 23.406068 -1085.180565 0.000003 0.000004 -14.874900 179.100647 149.914565 204.547254
45.790802 49.086803 44.088402 -29.431548 18.819174 -3.422529 -0.689792 0.941995 5.341002 30.229540 -6.968673 7.712889 -0.000001 -0.000002 4.278905 1.519307 -0.400727 1.150197 -0.000006 -0.000004 9.970296 -18.758332 -12.069389 26.918581 -0.000000 0.000005 2.173897 -2.116974 4.953763 -5.138326 2.472300 -0.285806 5.433899 9.335761 0.366649 -0.867029 5.327710 0.000001 0.000005 1193.976626 -139.026274 1111.432205 -0.000006 -0.000004 -10.713001 286.478515 -142.849445 338.131274 0.000005 -0.000002 -13.396906 150.241226 -525.387112 188.405058 -2.589403 -1.358401 6.105000 39.785910 26.193053 15.210722 -4.580201 0.000001 0.000010 -630.422089 -12.418767 -662.783471 0.000004 -0.000001 -10.761102 192.894350 181.982358 179.740212 0.000006 -0.000005 -13.028498 565.957234 -188.103902 859.597011 2.532500 0.486889 -2.489697 -678.393021 -46.093795 37.473085 0.000000 -0.000002 -18.199394 791.980597 491.320533 -118.039357 0.000001 0.000004 -16.083900 -169.221133 132.205838 194.827567 -2.112695 -0.049905 -2.711113 -6.957821 -19.618200 0.685330 0.000003 0.000003 -19.127293 1050.065852 23.476274 -1085.176521 0.000001 -0.000001 -14.874902 179.307697 149.978154 204.560860
45.763504 49.090107 44.080791 -29.747069 18.835652 -3.477208 -0.689800 0.942006 5.341001 30.544374 -6.885083 7.847164 0.000003 -0.000004 4.278893 1.021112 -0.388861 0.985362 0.000001 -0.000008 9.970302 -18.205330 -12.038459 27.216335 -0.000002 -0.000001 2.173899 -2.089475 4.834145 -5.173190 2.472304 -0.285800 5.433901 9.683151 0.135937 -0.885977 5.327703 0.000003 0.000001 1194.072905 -138.608403 1111.508594 -0.000004 -0.000000 -10.713012 286.226782 -143.134715 338.132722 -0.000004 -0.000005 -13.396900 150.099090 -525.365256 188.343587 -2.589396 -1.358405 6.105011 39.944726 26.124381 15.567634 -4.580196 0.000003 -0.000005 -630.077957 -12.683758 -662.484964 0.000004 0.000008 -10.761093 192.314877 182.285755 179.689928 -0.000003 0.000002 -13.028497 566.321255 -187.867918 859.670121 2.532500 0.486903 -2.489700 -678.112656 -46.044686 37.609364 0.000002 -0.000005 -18.199396 791.922950 491.308402 -117.998293 0.000001 -0.000002 -16.083900 -169.182420 132.137400 194.971821 -2.112701 -0.049894 -2.711107 -6.907331 -19.621305 0.754896 -0.000000 -0.000002 -19.127298 1049.983234 23.503564 -1085.197613 -0.000003 -0.000001 -14.874900 179.544404 149.974821 204.722899
45.739407 49.097698 44.078205 -29.894720 18.911832 -3.579843 -0.689786 0.941998 5.341002 30.710040 -6.867513 7.989615 0.000001 -0.000005 4.278904 0.817920 -0.362374 0.967851 0.000003 0.000000 9.970295 -17.879166 -11.987681 27.339816 0.000002 0.000002 2.173898 -2.170593 4.663094 -5.074207 2.472301 -0.285796 5.433891 10.254749 -0.289517 -1.244438 5.327702 -0.000004 0.000003 1193.877616 -138.098816 1112.071730 0.000002 0.000004 -10.712999 285.991277 -143.286850 338.001118 -0.000006 0.000001 -13.396899 150.259312 -525.367004 188.551853 -2.589396 -1.358399 6.104999 39.749266 25.794814 15.955573 -4.580198 0.000003 0.000015 -629.736994 -13.086426 -662.312734 -0.000003 -0.000003 -10.761090 191.659479 182.676947 179.563160 -0.000000 -0.000007 -13.028497 566.901712 -187.882849 859.644986 2.532510 0.486893 -2.489701 -677.866495 -46.018314 37.856306 0.000000 -0.000000 -18.199398 791.465710 491.561557 -117.800081 -0.000000 0.000004 -16.083900 -169.120784 132.309698 195.751910 -2.112690 -0.049904 -2.711108 -7.063092 -19.748275 0.740764 0.000005 -0.000014 -19.127298 1050.374904 23.609379 -1085.100460 0.000000 -0.000001 -14.874899 179.581656 150.120769 204.572048
45.708904 49.103199 44.076302 -30.024009 18.903578 -3.695689 -0.689798 0.941998 5.341001 30.857439 -6.839132 8.143729 0.000002 -0.000003 4.278904 0.569480 -0.336121 0.939970 -0.000000 -0.000006 9.970298 -17.651753 -11.873612 27.503316 0.000004 -0.000000 2.173892 -2.255661 4.482803 -4.989814 2.472300 -0.285809 5.433896 10.429847 -0.604429 -1.532073 5.327706 0.000002 0.000007 1194.154867 -137.669293 1112.644701 -0.000002 -0.000002 -10.713002 285.858443 -143.445119 337.895414 -0.000004 -0.000004 -13.396909 150.434602 -525.267557 188.966445 -2.589403 -1.358407 6.105002 39.500920 25.446677 16.709689 -4.580197 0.000006 -0.000001 -629.327838 -13.918168 -662.162743 0.000003 -0.000004 -10.761103 191.072848 183.061214 179.411407 -0.000002 -0.000007 -13.028497 567.488125 -187.818768 859.561712 2.532503 0.486888 -2.489697 -677.626783 -45.891341 38.056629 0.000005 -0.000002 -18.199390 791.054423 491.739087 -117.635406 -0.000005 0.000006 -16.083902 -169.083081 132.300013 196.214505 -2.112694 -0.049903 -2.711102 -7.320683 -19.795970 0.711861 -0.000004 -0.000002 -19.127304 1050.479816 23.707810 -1084.922220 -0.000000 0.000005 -14.874905 179.894547 150.200313 204.488528
